<?xml version="1.0" encoding="UTF-8"?>
<svg id="Livello_2" data-name="Livello 2" xmlns="http://www.w3.org/2000/svg" viewBox="0 0 21.33 11.22">
  <defs>
    <style>
      .cls-1 {
        stroke-width: 0px;
      }
    </style>
  </defs>
  <g id="Livello_1-2" data-name="Livello 1">
    <g>
      <path class="cls-1" d="M17.99,7.85c-.24,1.26.26,2.49-.8,3.37H.23c-.08-.44-.2-.82-.21-1.2-.02-1.72-.03-3.44,0-5.16.01-1.11.24-1.3,1.36-1.32.63,0,1.26,0,2,0,0-.89-.02-1.64,0-2.39C3.4.28,3.64.01,4.53.01c5.16-.01,10.32-.01,15.48,0,.88,0,1.21.34,1.24,1.24.05,1.72.09,3.43.09,5.15,0,1.19-.28,1.44-1.51,1.45-.59,0-1.18,0-1.83,0ZM4.22,5.81c0,.12,0,.24,0,.37,1.93,0,3.87-.03,5.8,0,1.93.04,3.87-.17,6,.05-.26.66-.44,1.12-.64,1.62-.58,0-1.1,0-1.62,0-3.24-.01-6.48-.02-9.72-.03-.68,0-1.36.04-2.04,0-.16,0-.31-.27-.65-.58.84-.08,1.38-.12,1.94-.17v-1.31q-1.49-.34-1.74-.72c.61-.05,1.18-.1,1.99-.16-.87-.93-1.76-.43-2.52-.54-.33,1.11-.32,5.12-.01,6.03h16q.12-1.55-.42-2.78c-.18-.42,0-.74.39-.85.91-.24,1.83-.41,2.75-.61.17-.04.34-.08.51-.12,0-.07-.01-.13-.02-.2H4.22ZM9.2,2.26c.26-.12.45-.2.85-.39h-5.84v2.31h8.76c.01-.16.06-.29.02-.39-.06-.14-.17-.25-.25-.36-2.37.45-3.01.25-3.55-1.17Z"/>
      <path class="cls-1" d="M16.34,9.38c.1.67-.32.63-.67.63-1.08,0-2.15-.02-3.23-.03-1.2,0-2.39,0-3.59,0-.34,0-.77.08-.73-.59h8.21Z"/>
      <path class="cls-1" d="M1.65,8.4h8.15c.02.09.04.17.07.26-.25.09-.51.25-.76.25-2.28.03-4.56.03-6.83.02-.23,0-.46-.16-.69-.24.02-.1.04-.2.06-.3Z"/>
      <path class="cls-1" d="M1.54,9.39h4.95c.07.64-.34.56-.69.58-2.99.16-3.81.07-4.25-.58Z"/>
      <path class="cls-1" d="M11.41,8.41c1.54.14,3.18-.68,4.72.51-2.59.21-4.25.08-4.72-.51Z"/>
    </g>
  </g>
</svg>