<?xml version="1.0" encoding="UTF-8"?>
<svg id="Livello_2" data-name="Livello 2" xmlns="http://www.w3.org/2000/svg" viewBox="0 0 16.98 12.01">
  <defs>
    <style>
      .cls-1 {
        stroke-width: 0px;
      }
    </style>
  </defs>
  <g id="Livello_1-2" data-name="Livello 1">
    <g>
      <path class="cls-1" d="M12.4,10.85c-.13.91-.65,1.18-1.5,1.16-1.92-.05-3.83-.02-5.79-.02-.22-.36-.42-.7-.7-1.14-.86,0-1.82.02-2.77,0-1.14-.02-1.61-.46-1.62-1.58-.02-2.56-.02-5.12,0-7.67C.03.56.6.01,1.67,0c4.52-.01,9.04-.01,13.56,0,1.07,0,1.72.61,1.73,1.68.03,2.52.04,5.04,0,7.55-.02,1.13-.51,1.57-1.65,1.6-.96.02-1.91,0-2.91,0ZM8.69,9.28h3.64v-2.72h-3.64v2.72ZM2.67,5.61c1.28-.03,2.5.19,3.68-.14V1.55h-3.68v4.06ZM7.7,9.27c0-2.51,0-4.97-.01-7.43,0-.11-.17-.22-.26-.33-.08.01-.16.03-.24.04,0,.38,0,.75,0,1.13,0,1.48,0,2.95,0,4.43-.01,1.36-.24,1.57-1.62,1.58-.98,0-1.95,0-3.09,0,.17.32.23.56.3.57,1.58.02,3.17.02,4.92.02ZM10.47,1.55c.04,1.89.75,3.08,1.9,3.35V1.55h-1.9ZM8.97,1.4c-.08.07-.16.14-.24.21v3.91h2.6c-1.08-1.07-1.54-2.21-1.79-3.47-.05-.25-.37-.44-.57-.65ZM6.34,6.53h-3.71v1.32h3.71v-1.32ZM13.38,1.57v3.93h1.04c0-1.1,0-2.13,0-3.15,0-.64-.29-.96-1.04-.78ZM13.38,9.43c.44-.12.73-.19,1-.27v-2.62h-1v2.89Z"/>
      <path class="cls-1" d="M5.86,3.63c0,1.06-.4,1.45-1.44,1.46-1.02.01-1.53-.51-1.52-1.53,0-.88.61-1.5,1.47-1.52.95-.02,1.49.56,1.48,1.59Z"/>
    </g>
  </g>
</svg>