<?xml version="1.0" encoding="UTF-8"?>
<svg id="Livello_2" data-name="Livello 2" xmlns="http://www.w3.org/2000/svg" viewBox="0 0 17.32 12.74">
  <defs>
    <style>
      .cls-1 {
        stroke-width: 0px;
      }
    </style>
  </defs>
  <g id="Livello_1-2" data-name="Livello 1">
    <path class="cls-1" d="M17.29,7.52H.03c.48-1.18,1.46-1.73,2.45-2.16,2.48-1.1,5.1-1.41,7.8-1.11,1.38.16,2.75.28,4.05.87,1.17.53,2.21,1.18,2.97,2.4ZM0,8.31v2.13h17.31c0-.58,0-1.05,0-1.53,0-.19-.04-.38-.07-.61H0ZM.78,1.6v3.49c.17.01.32.07.4.02.48-.26.96-.54,1.4-.8.09-1.11.54-1.85,1.38-2.02,1.36-.28,2.79-.67,3.61.94h2.06c.86-1.17,1.93-1.44,3.63-.96.83.24,1.29.9,1.39,2.02.54.29,1.11.6,1.82.98V1.53C11.2-.53,5.98-.52.78,1.6ZM17.24,12.7v-1.57c-.41.05-.74.09-1.07.13v1.39c.38.02.7.03,1.07.05ZM1.14,12.61c-.02-.53-.04-.95-.06-1.4H0v1.53c.43-.05.75-.09,1.14-.13Z"/>
  </g>
</svg>