<?xml version="1.0" encoding="UTF-8"?>
<svg id="Livello_2" data-name="Livello 2" xmlns="http://www.w3.org/2000/svg" viewBox="0 0 17.44 17.64">
  <defs>
    <style>
      .cls-1 {
        stroke-width: 0px;
      }
    </style>
  </defs>
  <g id="Livello_1-2" data-name="Livello 1">
    <g>
      <g>
        <path class="cls-1" d="M0,12.61v1.53c.43-.05.75-.09,1.14-.13-.02-.53-.04-.95-.06-1.4H0Z"/>
        <path class="cls-1" d="M14.65,5.7c.54.29,1.11.6,1.82.98v-3.75c-.19-.08-.39-.13-.58-.2l-1.64,1.64c.22.33.36.77.41,1.32Z"/>
        <path class="cls-1" d="M1.18,6.51c.48-.26.96-.54,1.4-.8.09-1.11.54-1.85,1.38-2.02,1.36-.28,2.79-.67,3.61.94h2.06c.67-.92,1.47-1.27,2.6-1.16.47-.47.95-.95,1.42-1.42C9.34.97,5.06,1.26.78,3v3.49c.17.01.32.07.4.02Z"/>
        <path class="cls-1" d="M14.32,6.52c-.55-.25-1.12-.4-1.69-.52l-2.93,2.93h7.58c-.76-1.23-1.8-1.88-2.97-2.4Z"/>
        <path class="cls-1" d="M10.08,5.63c-2.63-.27-5.18.05-7.61,1.12-.98.44-1.97.99-2.45,2.16h6.76c1.1-1.1,2.19-2.19,3.29-3.29Z"/>
        <path class="cls-1" d="M17.24,9.71h-8.32l-2.13,2.13h10.53c0-.58,0-1.05,0-1.53,0-.19-.04-.38-.07-.61Z"/>
        <path class="cls-1" d="M16.16,14.05c.38.02.7.03,1.07.05v-1.57c-.41.05-.74.09-1.07.13v1.39Z"/>
        <path class="cls-1" d="M4.11,11.61c.63-.63,1.26-1.27,1.9-1.9H0v2.13h3.87l.23-.23Z"/>
      </g>
      <path class="cls-1" d="M.07,17.55c0-.45-.04-.9,0-1.34.01-.14.23-.27.36-.4C5.5,10.75,10.56,5.68,15.63.61c.56-.56,1.1-1.06,1.82.03L.45,17.64l-.39-.09Z"/>
    </g>
  </g>
</svg>