<?xml version="1.0" encoding="UTF-8"?>
<svg id="Livello_2" data-name="Livello 2" xmlns="http://www.w3.org/2000/svg" viewBox="0 0 16.42 15.32">
  <defs>
    <style>
      .cls-1 {
        stroke-width: 0px;
      }
    </style>
  </defs>
  <g id="Livello_1-2" data-name="Livello 1">
    <g>
      <path class="cls-1" d="M9.11,15.06c-.18-.76-.33-1.42-.48-2.04-.79-.06-.98.29-1.01.78-.02.32.04.65-.05.95-.05.17-.31.28-.65.57V3.02h2.73c.04.26.1.49.1.71,0,3.51,0,7.02,0,10.53,0,.4.12.96-.64.8ZM8.87,4.99c.03-1.24-.1-1.35-1.18-1.05v1.05h1.18ZM7.68,11.21c1.2.25,1.35.1,1.08-1.07h-1.08v1.07ZM8.77,6.96c-.39.02-.73.04-1.08.06v1.07c1.21.17,1.28.1,1.08-1.13Z"/>
      <path class="cls-1" d="M6.08,15.07h-2.67V6.48c.83-.32,1.22-.34,2.67-.15v8.74ZM4.17,10.15c0,1.28.07,1.34,1.25,1.03-.01-.33-.03-.67-.04-1.03h-1.2ZM5.44,8.1c-.03-.42-.05-.75-.08-1.17-.45.04-.82.08-1.17.11q-.02,1.19,1.25,1.06Z"/>
      <path class="cls-1" d="M10.52,6.27h2.33c.31.88.38,7.22.1,8.78h-2.42V6.27ZM11.15,10.15c.03.46.06.81.08,1.22.36-.02.66-.04,1.01-.07v-1.15h-1.09Z"/>
      <path class="cls-1" d="M.07,9.4h2.7c.12,1.87.06,3.71.03,5.64H.03C0,13.21-.04,11.37.07,9.4ZM.78,10.14c.06.47.11.8.15,1.16h1.03v-1.16H.78Z"/>
      <path class="cls-1" d="M16.42,9.4v5.64h-2.69c-.02-1.85-.1-3.72.06-5.64h2.63ZM14.59,10.16q-.11,1.25,1,1.07v-1.14c-.4.03-.71.05-1,.07Z"/>
      <path class="cls-1" d="M9.22.76c-.1.44-.2.85-.28,1.22-.42-.02-.83-.05-1.25-.07-.12-.35-.26-.73-.39-1.12.29-.25.58-.49.92-.79.3.23.63.47,1.01.76Z"/>
      <path class="cls-1" d="M4.83,3.08c.34.25.67.48,1,.71-.15.37-.31.76-.48,1.17-.37.02-.79.04-1.21.06-.11-.4-.23-.8-.35-1.24.31-.21.67-.45,1.04-.7Z"/>
      <path class="cls-1" d="M12.38,4.96h-1.23c-.17-.4-.34-.8-.51-1.2.35-.21.73-.44,1.13-.69.24.19.56.45.92.75-.08.3-.19.7-.31,1.14Z"/>
      <path class="cls-1" d="M1.39,6.31c.35.24.69.47,1.04.72-.12.38-.25.81-.37,1.22-.37-.03-.74-.05-1.26-.09-.09-.26-.23-.69-.36-1.07.3-.25.59-.48.95-.78Z"/>
      <path class="cls-1" d="M16.09,7c-.13.45-.23.82-.37,1.28-.18-.05-.37-.16-.58-.17-.2,0-.41.09-.63.14-.14-.4-.28-.8-.41-1.17.3-.24.59-.47.94-.75.3.19.69.44,1.04.66Z"/>
    </g>
  </g>
</svg>