<?xml version="1.0" encoding="UTF-8"?>
<svg id="Livello_2" data-name="Livello 2" xmlns="http://www.w3.org/2000/svg" viewBox="0 0 18.42 13.71">
  <defs>
    <style>
      .cls-1 {
        stroke-width: 0px;
      }
    </style>
  </defs>
  <g id="Livello_1-2" data-name="Livello 1">
    <g>
      <path class="cls-1" d="M10.53,7.78c-.29-1.46-.41-2.73.72-4.01,1.01-1.14,2.03-2.21,3.34-2.95.74-.42,1.63-.62,2.48-.79.88-.17,1.53.47,1.3,1.35-.42,1.65-.92,3.28-1.46,4.89-.55,1.65-2.66,2.01-4.13,1.91-.71-.05-1.41-.24-2.25-.39ZM17.51.85c-.72.16-1.24.28-1.89.43v5.19c1.12-1.67,1.75-3.5,1.89-5.62Z"/>
      <path class="cls-1" d="M7.78,7.87c-1.42.02-2.72.57-4.17.12-1.07-.33-1.83-.89-2.18-1.83C.87,4.64.44,3.07.05,1.49-.2.47.54-.18,1.58.05c2.75.6,4.69,2.31,6.18,4.6.5.77.47,1.72.02,3.22ZM1.15.79c-.56,1.16.53,4.74,1.8,6.02-.1-1.83-.19-3.67-.29-5.56-.48-.15-1-.3-1.51-.46Z"/>
      <path class="cls-1" d="M4.55,11.66c.39.41.74.77,1.11,1.17.99-.39,1.61-1.12,2.41-2.08,0,.54.15,1.02-.03,1.2-.62.63-1.33,1.2-2.06,1.71-.16.11-.65-.06-.85-.24-.6-.55-1.19-1.14-1.69-1.79-.76-.98-.65-1.98.19-2.97.72,0,1.47,0,2.23,0,.7,0,1.4,0,2.11,0-.12,1.75-1.21,2.71-3.44,3.01Z"/>
      <path class="cls-1" d="M10.43,8.64h4.24c.92,1.12,1.03,2.02.24,3.09-.46.62-1.06,1.15-1.64,1.68-.38.34-.83.44-1.28.04-.46-.41-.96-.78-1.42-1.2-.39-.36-.47-.8-.18-1.27.72.64,1.43,1.28,2.25,2.01.6-.57,1.1-1.04,1.61-1.51-2.19.31-3.74-.8-3.81-2.84Z"/>
      <path class="cls-1" d="M9.38,4.98c.12.31.32.61.35.92.08.83.12,1.66.11,2.49-.02,1.19-.12,2.37-.16,3.56-.02.44.04.89-.74,1.03-.07-.39-.16-.74-.19-1.1-.07-1.07-.13-2.14-.16-3.2-.02-.83-.03-1.67.03-2.5.03-.4.24-.79.36-1.19h.4Z"/>
      <path class="cls-1" d="M8.61,4.62c-.7-1.02-1.48-2.02-.99-3.42.43,1.1.87,2.2,1.3,3.3-.11.04-.21.08-.32.12Z"/>
      <path class="cls-1" d="M9.71,4.57c-.13-1.25,1.02-2.13.91-3.51.7.9.51,1.62-.91,3.51Z"/>
    </g>
  </g>
</svg>