<?xml version="1.0" encoding="UTF-8"?>
<svg id="Livello_2" data-name="Livello 2" xmlns="http://www.w3.org/2000/svg" viewBox="0 0 14.98 18.75">
  <defs>
    <style>
      .cls-1 {
        stroke-width: 0px;
      }
    </style>
  </defs>
  <g id="Livello_1-2" data-name="Livello 1">
    <g>
      <path class="cls-1" d="M8.71,5.71c0-.7-.05-1.37.01-2.03.06-.74-.17-1.23-.98-1.5-1.53.98-.24,2.69-1,4-1.87,0-3.82.03-5.76-.02-.57-.01-.96-.41-.97-1.02C0,3.83-.02,2.52.03,1.2.05.47.49.06,1.27.05,3.38,0,5.5-.02,7.61.02c1.33.03,2.53,1.05,2.9,2.3.33,1.11-.1,2.44-1.04,3.21-.09.07-.19.15-.3.18-.11.03-.23,0-.46,0Z"/>
      <path class="cls-1" d="M12.4,17.07c-.4-1.54-1.66-2.35-2.19-3.67-.1.03-.2.06-.3.1.11,1.55.22,3.1.32,4.56-.67.65-1.35.76-2.09.65-.89-.13-1.39-.76-1.09-1.58.32-.89.29-1.65-.18-2.49-.27-.49-.26-1.15-.39-1.81-2.45-2.28-2.37-4.79.43-6.08.04.47.06.88.1,1.29.06.66.45,1.17.87,1.08.57-.12.88-.49.85-1.12-.02-.47.03-.95.05-1.43,0-.04.04-.07.06-.1,1.39-.08,2.64.96,2.78,2.31.03.28.09.59,0,.83-.51,1.31.33,2.16.99,3.08.14.19.3.37.43.56.65.93,1.3,1.87,1.94,2.79-.64.64-.73.65-1.18.06-.44-.58-.85-1.17-1.28-1.75-.09.06-.18.12-.27.19.5.75,1,1.5,1.62,2.42-.54.04-.95.07-1.47.11ZM9.15,18.13c.28-.25.44-.33.43-.4-.07-1.51-.14-3.02-.26-4.53-.02-.29-.24-.57-.39-.91-2.27.29-3.07-1.23-3.67-3-.19,1.24.35,2.09,1.22,2.83.31.26.73.63.74.96.01,1.45.92,2.82.4,4.32-.13.37.08.69.63.6-.1-1.54-.19-3.07-.29-4.57.85-.17.75.31.78.7.13,1.28.26,2.56.41,4.01Z"/>
      <path class="cls-1" d="M7.78,3.19c.61.9.61,4.04.06,5.28-.18-.38-.39-.64-.39-.89.01-1.47-.23-2.97.33-4.39Z"/>
    </g>
  </g>
</svg>