<?xml version="1.0" encoding="UTF-8"?>
<svg id="Livello_2" data-name="Livello 2" xmlns="http://www.w3.org/2000/svg" viewBox="0 0 17.63 13.69">
  <defs>
    <style>
      .cls-1 {
        stroke-width: 0px;
      }
    </style>
  </defs>
  <g id="Livello_1-2" data-name="Livello 1">
    <g>
      <path class="cls-1" d="M8.79,12.24c-2.51,0-5.03,0-7.54,0-1.32,0-1.54-.41-.9-1.59.04-.07.03-.17.08-.22,1.37-1.36,1.47-3.06,1.38-4.85-.07-1.27-.02-2.55-.01-3.83C1.8.45,2.21.01,3.47,0c3.55-.01,7.1-.01,10.66,0,1.23,0,1.65.41,1.67,1.65.03,1.75.04,3.51,0,5.27-.03,1.03.14,1.95.85,2.75.28.32.46.74.68,1.12.56.92.31,1.43-.77,1.44-2,.02-3.99,0-5.99,0-.6,0-1.2,0-1.8,0ZM14.68,1.07H2.97c-.05.44-.13.83-.14,1.22-.02,1.52-.02,3.03,0,4.55,0,1.21.09,1.29,1.3,1.3,3.11,0,6.23,0,9.34,0,.41,0,.82-.12,1.21-.18V1.07ZM1.88,10.22h13.64c-.06-.17-.08-.31-.11-.31-4.33-.04-8.67-.07-13-.09-.12,0-.24.18-.53.4ZM2.6,9.03c1.38.47,11.58.4,12.35,0H2.6Z"/>
      <path class="cls-1" d="M17.62,12.9c-.23.67-.64.78-1.15.78-5.11,0-10.22-.01-15.33,0-.6,0-.95-.17-1.11-.78h17.59Z"/>
      <path class="cls-1" d="M11.87,3.67c-.27-.06-.56-.04-.75-.17-1.55-1.04-3.05-1.11-4.55.09-.41.33-.78.33-1.09-.15.89-1.58,3.13-1.98,4.42-1.66,1.3.33,1.91.91,1.97,1.89Z"/>
      <path class="cls-1" d="M10.26,4.89c-1.31-.72-1.77-.7-2.91.12-.62-.65-.63-.82.06-1.16.94-.47,1.91-.44,2.87-.03.66.28.55.66-.02,1.08Z"/>
      <path class="cls-1" d="M9.63,5.4c.29.67.37,1.33-.27,1.72-.26.16-.84.03-1.14-.16-.48-.31-.55-.84-.2-1.35.42-.62.97-.55,1.61-.21Z"/>
    </g>
  </g>
</svg>