<?xml version="1.0" encoding="UTF-8"?>
<svg id="Livello_2" data-name="Livello 2" xmlns="http://www.w3.org/2000/svg" viewBox="0 0 14.12 13.75">
  <defs>
    <style>
      .cls-1 {
        stroke-width: 0px;
      }
    </style>
  </defs>
  <g id="Livello_1-2" data-name="Livello 1">
    <path class="cls-1" d="M2.58,2.83c.18,1.12-1,.92-1.41,1.68.31.16.61.45.91.46,1.84.04,3.68.02,5.51,0,.18,0,.36-.21.68-.4C6.79,3.06,5.41,1.65,3.98.2c.45-.34.69-.2.97.09.91.94,1.85,1.85,2.78,2.77.25.25.52.47.94.85.56-1.34,1.07-2.6,1.59-3.85.7.32,1.27.69,1.59,1.46.13.3.73.42,1.12.6.39.17.79.31,1.16.45-.17,1.39-.51,1.72-1.68,1.75-.51.01-1.11-.15-1.2.65-.9-.29-1.73-.56-2.56-.83-.04.11-.08.22-.12.33.85.35,1.71.69,2.66,1.08-.15.62-.27,1.19-.44,1.75-.29.91-.28,1.78.02,2.69.39,1.2.66,2.43.98,3.66-1.37.2-1.7-.08-2.14-1.97-.12.87-.2,1.47-.28,2.06-1.14-.08-1.35-.23-1.42-1.21-.06-.87-.01-1.74-.01-2.68-1.29-.47-2.47-.9-3.6-1.31-.97,1.09-.2,2.07-.06,3.03.1.72.39,1.41.61,2.16-1.57.03-1.75-.16-2.52-2.27-.09.76-.17,1.52-.26,2.26-1.15,0-1.4-.12-1.5-1-.09-.79-.38-1.66.43-2.33.17-.14.17-.52.18-.79.02-.72,0-1.44.01-2.16.02-.72.02-1.36-.71-1.87-.61-.42-.61-1.33-.25-1.97.45-.81.96-.99,2.33-.78Z"/>
  </g>
</svg>