<?xml version="1.0" encoding="UTF-8"?>
<svg id="Livello_2" data-name="Livello 2" xmlns="http://www.w3.org/2000/svg" viewBox="0 0 16.2 20.4">
  <defs>
    <style>
      .cls-1 {
        stroke-width: 0px;
      }
    </style>
  </defs>
  <g id="Livello_1-2" data-name="Livello 1">
    <g>
      <path class="cls-1" d="M5.34,10.91c-1.3-1.76-1.53-3.2-1.65-5.45-1.17,1.17-2.27,2.29-3.38,3.4-.39-1.41.24-2.7,2.28-4.54-.45,0-.85-.03-1.24,0-.34.03-.67.14-1.03.22.25-1.29.46-1.4,2.57-1.51,0-.74-.31-1.54.42-2.34.4.59.74,1.09,1.13,1.65C5.37,1.07,6.49-.06,8.48,0c-1.07,1.02-2.03,1.94-3,2.86.03.09.07.17.1.26,2.25-.85,4.4-.83,6.55.67-1.84.23-3.51.44-4.98.62.38.56.91,1.21,1.29,1.94.14.26-.07.7-.13,1.12-1.01-.85-1.88-1.58-2.75-2.31-.08,2.02-.15,3.88-.22,5.74Z"/>
      <path class="cls-1" d="M.66,16.05c-.38-.37-.74-.74-.29-1.38.68.36,1.38.59,2.16.06.26-.18.82-.12,1.13.04.63.32,1.17.38,1.8,0,.48-.28.97-.21,1.47.09.43.26.93.37,1.34-.2-.73-.16-1.39-.3-2.04-.44.02-.05.03-.09.05-.14-.6.15-1.2.39-1.8.41-.49.02-.98-.24-1.54-.39-.71.55-1.58.48-2.61.16-.06-.3-.12-.65-.22-1.18h7.94c-.1-2.28-1.31-4.21-1.95-6.3.06-.05.13-.11.19-.16.2.12.43.21.59.37.93.9,1.21,2.15,1.58,3.3.73,2.28,1.01,4.66.94,7.16H.25c-.16-.57-.18-1.06.38-1.39.07.13.14.37.2.37.58-.03,1.16-.08,1.73-.15.26-.03.62-.25.75-.15.99.73,1.91.39,2.8-.09,1.08.61,1.65.63,2.33.12-.62-.11-1.23-.32-1.85-.3-1.32.04-2.63.13-3.95-.02-.65-.07-1.32.12-1.99.19Z"/>
      <path class="cls-1" d="M13.64,8.28c.45,2.29.25,3.57-.63,4.61-.26-1.48-.53-2.99-.83-4.69-.78,1.11-1.51,2.15-2.24,3.19-.44-1.08-.34-1.46.95-3.54-.67.08-1.29.16-1.95.24-.24-1.74,1.18-1.51,2.3-1.79-.78-.5-1.4-.9-2.16-1.4,1.45-.73,2.25.18,3.2.7.19-.44.4-.91.6-1.38.09,0,.17,0,.26,0,.2.53.4,1.06.58,1.54.64.04,1.32.04,1.99.15.18.03.3.37.5.62-.75.1-1.35.17-2.15.28,1.07,1.01,2.26,1.79,2.06,3.51-.87-.71-1.62-1.32-2.48-2.03Z"/>
      <path class="cls-1" d="M10.02,20.32c-.04-.51-.06-.85-.09-1.3-2.05.04-4.18-.56-5.78,1.38-.69-.78.05-1.2.35-1.39.64-.42,1.34-.84,2.21-.78.8.06,1.6-.01,2.4.02.97.04,1.82-.14,2.43-.98.1-.14.32-.2.57-.35.28,1.39-.84,1.58-1.51,2.05,0,.42.02.82-.02,1.2,0,.05-.28.08-.55.15Z"/>
      <path class="cls-1" d="M2.89,11.12c-.01.93-.48,1.39-1.41,1.38C.69,12.49-.01,11.82,0,11.08c.01-.62.83-1.6,1.57-1.5.76.11,1.33.69,1.32,1.54Z"/>
      <path class="cls-1" d="M11.71,10.17c-.11.69-.24,1.37-.33,2.06-.21,1.46-.41,2.91-.59,4.37-.06.45-.04.91-.76.84-.09-2.57-.23-5.14,1.68-7.27Z"/>
    </g>
  </g>
</svg>