<?xml version="1.0" encoding="UTF-8"?>
<svg id="Livello_2" data-name="Livello 2" xmlns="http://www.w3.org/2000/svg" viewBox="0 0 14.73 13.94">
  <defs>
    <style>
      .cls-1 {
        stroke-width: 0px;
      }
    </style>
  </defs>
  <g id="Livello_1-2" data-name="Livello 1">
    <g>
      <path class="cls-1" d="M9.3,7c0,1.64-.06,3.28.02,4.91.07,1.35-.68,1.97-1.82,2-1.88.04-3.76.04-5.64-.01-1.42-.04-1.82-.84-1.83-1.9C0,8.64,0,5.29.03,1.93.04.63.76.01,2.08,0,3.88,0,5.68,0,7.48.01c1.24.01,1.8.58,1.81,1.83.01,1.72,0,3.44,0,5.15ZM3.25,4c1.41-.06,2.77.28,3.95-.64-1.01-.89-2.06-1.44-3.31-1.01-.85.29-1.81.62-2,1.93.54-.47.99-1.14,1.37-.28ZM7.36,5.59c-.24.16-.49.31-.65.42-1.59-.67-3.1-.11-4.68-.12.5,1.19,1.52,1.44,2.58,1.47,1.25.04,2.3-.37,2.75-1.78ZM1.84,4.8c0,.05,0,.1,0,.16h5.79c0-.05,0-.1,0-.16H1.84ZM4.59,10.95c-.34-.48-.07-1.29-.91-1.58-.17.59-.31,1.1-.43,1.5.47.03.87.05,1.33.07Z"/>
      <path class="cls-1" d="M13.54.87c-1.38-.1-2.64-.18-3.89-.3-.08,0-.14-.26-.28-.55,1.41,0,2.71-.05,4.01.02.81.04,1.33.8,1.35,1.84.02,1.92,0,3.83,0,5.75,0,1.4.01,2.8,0,4.19-.02,1.56-.52,2.05-2.09,2.09-1.03.02-2.06,0-3.12,0,.06-.74.51-.83,1.02-.83.76,0,1.52.03,2.28-.02.86-.05,1.06-.23,1.06-1.1.02-3.35.02-6.71,0-10.06,0-.36-.23-.72-.33-1.03Z"/>
      <path class="cls-1" d="M10.05,1.86c.81,0,1.49,0,2.16,0,.45,0,.83.16.87.62.09.81.26,1.66-.31,2.47h-2.72V1.86Z"/>
      <path class="cls-1" d="M12.9,5.69c.12.53.26.86.25,1.18-.06,1.76.19,3.53-.17,5.5-.59-1-.63-5.44-.07-6.67Z"/>
      <path class="cls-1" d="M11.68,12.14c-.61-.99-.59-5.31,0-6.22.24,2.07.17,4.13,0,6.22Z"/>
      <path class="cls-1" d="M10.07,5.71c.55.94.68,2.82.49,5.57-.02.31-.15.61-.23.92-.09-.02-.17-.03-.26-.05v-6.44Z"/>
    </g>
  </g>
</svg>