<?xml version="1.0" encoding="UTF-8"?>
<svg id="Livello_2" data-name="Livello 2" xmlns="http://www.w3.org/2000/svg" viewBox="0 0 13.81 16.1">
  <defs>
    <style>
      .cls-1 {
        stroke-width: 0px;
      }
    </style>
  </defs>
  <g id="Livello_1-2" data-name="Livello 1">
    <g>
      <path class="cls-1" d="M9.88,4.43h1.43c1.63,2.83,1.71,5.69.13,8.56-.49.89-1.69,1.22-2.68.82-.91-.37-1.29-1.15-1.06-2.21.3-1.43.53-2.89.94-4.29.29-1.01.83-1.94,1.24-2.88Z"/>
      <path class="cls-1" d="M2.65,6.58h1.28c.93,1.43,1.56,2.98,1.83,4.69.13.78.31,1.56.45,2.34.22,1.34-.14,2.05-1.19,2.38-1.11.35-2.31-.17-2.79-1.24-1.09-2.44-1.2-4.9-.08-7.36.13-.28.33-.53.5-.81Z"/>
      <path class="cls-1" d="M13.02,7.6c-.13-1.37-.57-2.49-1.3-3.51-.13-.18-.1-.48-.24-.66-.2-.25-.46-.56-.73-.62-.2-.04-.56.23-.71.46-.6.9-1.14,1.84-1.79,2.9-.1-.33-.21-.52-.22-.72-.08-1.47-.16-2.94.57-4.32.54-1.02,1.82-1.46,2.8-.88,1.88,1.1,2.6,2.63,2.36,4.64-.1.87.14,1.86-.74,2.7Z"/>
      <path class="cls-1" d="M.72,9.46C-.75,6.63.13,3.67,2.53,2.39c1.38-.73,3.02.22,3.18,1.92.12,1.29.02,2.6.02,4.18-.66-1.1-1.15-1.98-1.69-2.83-.2-.3-.59-.75-.8-.71-.34.07-.73.44-.9.78-.58,1.2-1.07,2.43-1.62,3.72Z"/>
    </g>
  </g>
</svg>