<?xml version="1.0" encoding="UTF-8"?>
<svg id="Livello_2" data-name="Livello 2" xmlns="http://www.w3.org/2000/svg" viewBox="0 0 16.45 15.84">
  <defs>
    <style>
      .cls-1 {
        stroke-width: 0px;
      }
    </style>
  </defs>
  <g id="Livello_1-2" data-name="Livello 1">
    <g>
      <path class="cls-1" d="M.12,15.74c-.05-.59-.11-.98-.11-1.37,0-2.59,0-5.18,0-7.77,0-.44,0-.89.1-1.31.22-1.04,1.13-1.72,2.22-1.73.6,0,1.2,0,1.8,0,1.74,0,2.75.86,2.8,2.62.07,2.87.02,5.74.02,8.61,0,.5-.21.93-.71.94-1.98.04-3.97.02-6.11.02Z"/>
      <path class="cls-1" d="M12.44,0c1,0,2-.02,3,0,.87.02,1.05.21,1,1.09-.15,2.87-.31,5.74-.51,8.61-.1,1.5-.69,2-2.19,2-1.16,0-2.32.01-3.48,0-.97-.01-1.11-.13-1.17-1.1-.14-2.11-.24-4.22-.37-6.34-.06-1.04-.14-2.07-.21-3.1-.06-.93.11-1.13,1.05-1.15.96-.02,1.92,0,2.88,0ZM12.06,3.41c-.16-.53-.32-1.06-.52-1.75-.29.86-.31,1.55.33,1.96.26.17.75-.03,1.1-.06V1.51c-.44.76.05,1.61-.9,1.9ZM10.56,3.13c-.16.21-.3.42-.45.62.37-.06.82-.3.79-.45-.08-.4-.36-.76-.58-1.16.12-.04.31-.11.65-.23-.76-.51-1.11-.21-1.41.4.31.25.63.51,1,.81Z"/>
      <path class="cls-1" d="M14.38,15.84c-.68-.59-1.26-.57-1.97-.31-.57.21-1.26.26-1.86.17-.55-.08-1.01-.48-1.03-1.14-.02-.67,0-1.35,0-2.21,1.94-.14,3.79-.03,5.72-.07v2.9c-.24.19-.51.4-.85.67Z"/>
      <path class="cls-1" d="M1.66,2.79c.02-.99-.4-2.08.55-2.52.67-.31,1.71-.32,2.38-.02,1.06.48.4,1.61.55,2.53H1.66Z"/>
    </g>
  </g>
</svg>