<?xml version="1.0" encoding="UTF-8"?>
<svg id="Livello_2" data-name="Livello 2" xmlns="http://www.w3.org/2000/svg" viewBox="0 0 13.8 15.49">
  <defs>
    <style>
      .cls-1 {
        stroke-width: 0px;
      }
    </style>
  </defs>
  <g id="Livello_1-2" data-name="Livello 1">
    <g>
      <path class="cls-1" d="M3.61,8.4c0-1.69,0-3.47,0-5.26,0-.28.02-.56,0-.84-.08-.87-.27-.99-1.32-.84-.15.65-.3,1.33-.47,2.08-.29-.09-.54-.09-.63-.21-.35-.46-.25-2.05.12-2.53C1.64.35,2.77-.07,3.22.08c.96.32,1.48.95,1.53,1.89.02.32,0,.64,0,.96,0,.28,0,.56,0,1h3.2c.22.71.18,1.09-.53,1.09-.83,0-1.67,0-2.47,0-.29.55-.21.9.34.92,1.07.04,2.14.01,3.38.01,0-1.4.05-2.7-.02-3.99-.04-.7-.59-.74-1.25-.51-.15.66-.32,1.36-.48,2.06-.29-.04-.47-.02-.51-.08-.87-1.16,0-3.26,1.41-3.42.81-.09,1.9.83,1.97,1.72.05.67.01,1.35.01,2.18h3.79c.08.4.12.65.2,1.07h-3.85v3.38c-2.14.75-4.17.48-6.33.05ZM4.82,7.75h3.77c.12-.4.14-.73-.32-.74-1.14-.02-2.28,0-3.45,0v.75Z"/>
      <path class="cls-1" d="M4.35,10.86c-.71.67-1.7.7-2.71.64-1.63-.1-1.9-.49-1.45-2.21,1.2.59,2.4.63,3.64.06.38-.17.97-.16,1.35.01,1.17.55,2.27.51,3.43-.03.32-.15.8-.19,1.11-.05,1.27.55,2.52.62,3.77-.02.33.94.29,1.04-.43,1.26-.3.09-.64.13-.89.3-1.27.89-1.48.91-2.83.09-.03-.02-.07-.03-.09-.04-1.58.91-3.13.85-4.91-.01Z"/>
      <path class="cls-1" d="M12.03,13.14c.49-.58.67-1.39,1.65-1.21v1.64H.08v-1.67c1.55.32,3.04.58,4.36-.38,1.61.93,3.17.87,4.88.02.7.67,2.13.26,2.71,1.59Z"/>
      <path class="cls-1" d="M.06,15.49v-1.11h13.74c-.17.43-.29.75-.43,1.11H.06Z"/>
      <path class="cls-1" d="M2.94,4.05c.02.31.04.54.06.87H.07c-.01-.24-.03-.52-.05-.87h2.92Z"/>
    </g>
  </g>
</svg>