<?xml version="1.0" encoding="UTF-8"?>
<svg id="Livello_2" data-name="Livello 2" xmlns="http://www.w3.org/2000/svg" viewBox="0 0 18.77 12.62">
  <defs>
    <style>
      .cls-1 {
        stroke-width: 0px;
      }
    </style>
  </defs>
  <g id="Livello_1-2" data-name="Livello 1">
    <g>
      <path class="cls-1" d="M2.97,3.64c.74-.58,1.42-1.24,2.22-1.71,1.66-.98,3.48-1.42,5.45-1.1-1.58.72-3.07,1.48-3.56,3.33-.27,1.03-.33,2.02.17,3.26.3-.56.51-.94.71-1.34.95-1.91,3.14-3.65,5.73-3.16.45.09.89.27,1.37.53-1.37.54-2.35,1.42-2.67,2.82-.19.83-.07,1.66.55,2.35.5-.79.96-1.6,1.5-2.35.61-.85,1.5-1.31,2.52-1.35.57-.02,1.15.19,1.79.31-.04.12-.04.32-.14.39-1.89,1.26-2.09,2.58-.63,4.27-1.08.77-1.26.77-3.83.08-.22-1.25.32-2.29.96-3.31-.9.26-1.25,1.09-1.5,3.72-.59,0-1.23.13-1.79-.03-.64-.17-1.18-.29-1.83,0-.4.17-.91.07-1.34.09-.94-2.86,1.35-6.89,4.92-6.93-.89-.46-1.82-.3-2.93.53-1.72,1.28-2.78,2.91-2.73,5.14,0,.24-.02.48-.04.71,0,.04-.04.07-.05.09-.5.14-.99.28-1.49.4-.23.06-.48.13-.71.09-1.31-.22-2.62-.46-3.99.09-.35-2.27-.15-4.26.98-6.12.16-.26.25-.56.37-.84,0,0-.03.03-.03.03Z"/>
      <path class="cls-1" d="M.1,12.54v-1.74c1.16.36,2.25.42,3.33.02.2-.07.47,0,.71.05.15.03.3.15.45.15,1.88-.02,3.76-.06,5.64-.09.47,0,.93-.01,1.4.03.33.03,5.64,0,5.98-.08.11-.03.24-.03.44-.05v1.59c-.46.07-.88.22-1.3.19-1.46-.07-2.92-.02-4.38-.02-.99,0-1.97,0-2.96.02-1.85.03-3.71-.12-5.56-.17-.27,0-.54.09-.81.09-.94.01-1.88,0-2.93,0Z"/>
      <path class="cls-1" d="M3,3.61c-.97.31-1.12,1.24-1.45,2-.63,1.48-.88,3.04-.64,4.67-.09.03-.19.07-.28.1-.2-.27-.55-.53-.58-.82C-.4,5.54,2.08,1.45,6.04.23c.98-.3,2.21-.31,3.56-.04-1.04.21-1.91.38-2.78.55-1.59.32-2.76,1.3-3.82,2.44-.08.09-.03.3-.03.45l.03-.03Z"/>
    </g>
  </g>
</svg>